<?xml version="1.0" encoding="UTF-8"?>
<svg version="1.1" viewBox="0 0 1600 1600" width="1280" height="1280" xmlns="http://www.w3.org/2000/svg">
<path transform="translate(560,1279)" d="m0 0c9.11 0.191 16.5 2.04 23.4 8.12 4.71 8.66 5.28 18.7 6.12 28.4 0.987 16.3 0.987 16.3 6.44 31.5 0.33 0.99 0.66 1.98 1 3 5.03 2.83 10.4 3.5 16 2.57 3.15-0.889 4.83-2.13 7.01-4.57 3.31-6.64 4.56-13.6 6.02-20.8 1.54-7.24 3.88-13 7.98-19.2 9.22-1.84 19.8 1.83 28 6 2 3 2 3 1.94 5.62-1.55 5.59-4.63 10.2-7.65 15.2-4.32 7.15-7.53 14.3-10.3 22.2h-2c-0.0928 1.36-0.0928 1.36-0.188 2.75-0.66 4.59-2.51 8.56-4.35 12.8-1.63 3.85-3.13 7.73-4.59 11.6-0.241 0.641-0.483 1.28-0.731 1.94-1.52 4.08-2.94 8.19-4.3 12.3-0.969 2.92-1.97 5.82-2.96 8.73-3.93 11.5-7.71 22.9-10.2 34.8-0.656 2.96-0.656 2.96-1.66 4.96-10.2-0.64-19.2-3.14-28.6-7.04-3.73-1.51-7.55-2.72-11.4-3.96-2.69-0.892-5.38-1.79-8.06-2.69-1.32-0.442-2.65-0.883-3.97-1.32-0.978-0.326-1.96-0.652-2.96-0.988v-2c-0.879-0.0941-1.76-0.188-2.66-0.285-3.65-0.783-5.7-1.98-8.71-4.15-0.874-0.617-1.75-1.23-2.65-1.87-0.978-0.837-0.978-0.837-1.98-1.69v-2c-0.597-0.254-1.19-0.508-1.81-0.77-5.71-3.2-9.2-10.2-11.2-16.2-3.06-11-1.82-22.2 3.84-32.2 3.72-5.79 7.03-10.5 13.2-13.8h2v-2c1.91-0.984 3.83-1.96 5.75-2.94 1.07-0.545 2.13-1.09 3.23-1.65 2.4-1.12 4.43-1.92 7.02-2.41v-2c0.66-0.33 1.32-0.66 2-1 0.5-10.3 0.5-10.3-2-20-0.325-2.2-0.61-4.41-0.875-6.62-0.707-5.62-1.57-11.2-2.62-16.8-0.127-0.673-0.254-1.35-0.385-2.04-0.697-3.62-1.49-7.2-2.36-10.8-0.71-3.61-0.588-5.35 0.25-8.81zm6 91v2c-0.99 0.33-1.98 0.66-3 1v2c-0.99 0.33-1.98 0.66-3 1v3h-2c-3.81 7.7-5.94 15.6-3.38 24.1 4.76 9.47 14.9 14.5 24.4 17.9 3.97 1.04 7.88 1.95 12 2 0.99-0.66 1.98-1.32 3-2v-2h2c0.676-1.41 1.34-2.83 2-4.25 0.371-0.789 0.743-1.58 1.12-2.39 1.11-2.57 1.11-2.57 0.875-6.36h2c1.38-3.85 2.72-7.7 4.06-11.6 0.39-1.09 0.78-2.17 1.18-3.29 2.87-8 2.87-8 1.76-16.1-1.63-1.55-1.63-1.55-3.88-2.19-0.815-0.299-1.63-0.598-2.47-0.906-1.31-0.449-1.31-0.449-2.66-0.906-0.877-0.361-1.75-0.722-2.66-1.09-9.72-3.91-22.3-6.76-31.3 0.0938z" fill="#000002"/>
<path transform="translate(1457,645)" d="m0 0c1.6 4.45 2.64 8.86 3.44 13.5 0.125 0.712 0.25 1.42 0.379 2.16 0.401 2.3 0.793 4.6 1.18 6.9 0.134 0.785 0.267 1.57 0.405 2.38 2.93 17.4 5.8 34.5 3.6 52.1-0.102 0.897-0.204 1.79-0.309 2.72-2.25 14.7-11.9 26.5-23.5 35.2-11.5 7.42-23.9 10.8-37.2 13.1-0.929 0.165-1.86 0.33-2.82 0.5-6.45 0.828-13 0.435-19.4 0.188-0.948-0.0344-1.9-0.0688-2.87-0.104-5.29-0.256-9.85-0.919-14.9-2.58-1.48-0.384-2.96-0.761-4.44-1.12-1.18-0.289-2.35-0.577-3.56-0.875v-2c-2.97-0.495-2.97-0.495-6-1v-2c-1.32-0.33-2.64-0.66-4-1v-2c-0.872-0.379-0.872-0.379-1.76-0.766-10.4-5.73-16.3-20-19.6-30.9-1.33-5.08-2.52-10.2-3.61-15.3-0.164-0.715-0.328-1.43-0.497-2.17-1.54-7.04-2.1-14-2.57-21.2-0.154-2.3-0.312-4.6-0.473-6.9-0.0658-1-0.132-2.01-0.199-3.04-0.231-2.34-0.662-4.42-1.27-6.68-0.0655-1.58-0.0858-3.17-0.0625-4.75 0.00902-0.799 0.018-1.6 0.0273-2.42 0.0116-0.603 0.0232-1.21 0.0352-1.83 3.13-1.04 5.25-1.1 8.52-1.06 1.1 0.00854 2.19 0.0171 3.33 0.0259 1.75 0.0181 1.75 0.0181 3.53 0.0366 12.1 0.0575 23.5-0.358 35.4-2.47 3.54-0.588 7.07-1.04 10.6-1.47 9-1.09 18-2.36 26.9-3.68 2.52-0.367 5.03-0.717 7.55-1.07 12.2-1.74 24.6-3.96 35.9-8.96 3.06-1.31 4.89-1.65 8.17-1.36zm-26.2 31.9c-0.719 0.0915-1.44 0.183-2.18 0.277-3.91 0.488-3.91 0.488-7.57 1.85-1.39 0.195-2.79 0.343-4.18 0.465-0.84 0.0767-1.68 0.153-2.55 0.232-1.34 0.119-1.34 0.119-2.71 0.24-8.09 0.762-16 1.88-23.9 3.56-6.25 1.25-12.5 1.88-18.8 2.44-17 1.3-17 1.3-32.8 7.06-0.974 15 2.5 29.9 11.8 41.9 8.05 8.57 19.2 12.1 30.7 12.5 2.27 0.0127 4.53 0.00435 6.8-0.0234 1.19-0.00943 2.38-0.0189 3.6-0.0286 18.5-0.317 37.6-4.54 51.5-17.5 9.07-9.72 9.91-19.3 9.8-32.2-0.418-11-0.418-11-5.16-20.6-4.77-1.55-9.38-0.812-14.2-0.125z" fill="#000002"/>
<path transform="translate(1072,1275)" d="m0 0c1.66 0.672 3.33 1.34 5 2v2c0.587 0.121 1.17 0.242 1.78 0.367 11 3.12 18.2 16.3 23.6 25.6 4.98 8.99 8.86 18.2 12 28 0.549 1.69 1.16 3.35 1.78 5.02 1.97 6.76 1.97 13.6 2 20.6 0.00467 0.708 0.00935 1.42 0.0142 2.15-0.0258 8.57-1.01 15-5.08 22.6-0.36 0.702-0.721 1.4-1.09 2.13-1.53 2.96-3.12 5.78-4.97 8.56h-2c-0.24 0.574-0.48 1.15-0.727 1.74-1.53 2.72-3.32 4.39-5.65 6.45-0.771 0.695-1.54 1.39-2.34 2.11-2.2 1.64-3.61 2.3-6.29 2.71v2c-17.8 9.02-37.1 14-56.8 8-1.74-0.635-3.48-1.29-5.19-2v-2c-0.722-0.103-1.44-0.206-2.19-0.312-4.37-1.07-7.94-3.2-10.8-6.69v-2c-0.99-0.33-1.98-0.66-3-1-1.36-1.65-2.69-3.31-4-5-0.66-0.33-1.32-0.66-2-1-1.03-1.65-2.02-3.32-3-5-0.423-0.584-0.846-1.17-1.28-1.77-3.54-4.92-6.15-10-8.59-15.5-0.31-0.694-0.621-1.39-0.94-2.1-1.49-3.48-2.18-5.74-2.18-9.58h-2c-4.68-16.3-4.68-16.3-5-25-0.04-0.931-0.0799-1.86-0.121-2.82-0.284-12.8 1.69-23.1 8.12-34.2 0.517-0.938 1.03-1.88 1.57-2.84 0.473-0.712 0.946-1.42 1.43-2.16h2c0.0619-0.578 0.124-1.15 0.188-1.75 1.14-3.17 3.14-4.24 5.81-6.25 0.846-0.887 1.69-1.77 2.56-2.69 2.32-2.2 3.34-2.97 6.44-3.31v-2c1.65-0.33 3.3-0.66 5-1v-2c2.81-0.991 5.62-1.97 8.44-2.94 1.17-0.417 1.17-0.417 2.37-0.842 15-5.12 30.8-4.55 45.2 1.78zm-57 25v2h-2c-0.619 1.05-1.24 2.1-1.88 3.19-0.348 0.592-0.696 1.18-1.05 1.79-3.09 5.83-3.42 10.6-3.38 17.1 0.00491 0.942 0.00983 1.88 0.0149 2.85 0.305 18.1 9.06 42.2 22.3 55.1 1.04 1.27 2.08 2.54 3.12 3.81 6.57 7.54 15 13.5 25.1 14.5 12 0.417 20.6-2.44 29.7-10.2 6.18-6.14 8.33-13.7 8.48-22.3-0.0496-24.9-9.14-46.8-25.4-65.8-4.84-4.9-4.84-4.9-11-7v-2c-15-6.88-32.3-5.42-44 7z" fill="#000002"/>
<path transform="translate(1343 403)" d="m0 0c2.64 1.32 3.91 3.05 5.67 5.4 0.614 0.803 1.23 1.61 1.86 2.43 1.39 2.13 1.39 2.13 1.39 4.13h2c0.73 1.55 1.43 3.12 2.12 4.69 0.394 0.87 0.789 1.74 1.2 2.64 0.845 3.33 0.359 4.73-1.32 7.68-2.62 1.31-2.62 1.31-5 2v2c-1.13 0.519-2.27 1.04-3.44 1.57-7.48 3.45-14.7 6.91-21.6 11.4h-2v2c-1.32 0.33-2.64 0.66-4 1v2c-1.99 1.33-4.06 2.44-6.15 3.59-2.2 1.69-2.49 2.72-2.85 5.41 0.833 0.189 0.833 0.189 1.68 0.383 2.53 0.675 4.92 1.58 7.38 2.49 12.8 4.27 26.4 5.29 39.8 6.38 1.12 0.0923 2.25 0.185 3.4 0.28 1.06 0.0778 2.12 0.156 3.21 0.236 0.942 0.0699 1.88 0.14 2.85 0.212 2.71 0.023 5.01-0.39 7.65-0.978 4.43-0.352 6.98-0.436 11.1 1.31 5.17 4.73 9.19 11.2 11.9 17.7-0.526 4.53-0.526 4.53-2 6-5.74 0.278-10.8-0.247-16.4-1.36-4.83-0.872-9.69-1.54-14.6-2.2-0.914-0.127-1.83-0.253-2.77-0.384-5.66-0.767-11.3-1.35-17-1.79-2.21-0.266-2.21-0.266-4.21-1.27-2.88-0.233-5.74-0.42-8.62-0.562-0.802-0.0432-1.6-0.0864-2.43-0.131-1.98-0.106-3.96-0.207-5.95-0.307-0.454 0.804-0.908 1.61-1.38 2.44-1.62 2.56-1.62 2.56-3.62 3.56-0.961 2.23-0.961 2.23-1.81 4.94-1.63 4.67-3.57 8.96-5.84 13.3-2.13 4.3-3.94 8.72-5.81 13.1-1.47 3.41-3.02 6.78-4.6 10.1-2.45 5.26-4.6 10.6-6.64 16-1.49 3.93-3.05 7.84-4.61 11.7-0.267 0.665-0.534 1.33-0.809 2.02-0.626 1.56-1.25 3.12-1.88 4.67h-2c-0.33 0.99-0.66 1.98-1 3-5.95-1.98-10.1-9.82-13.3-15.1-1.73-3.72-2.02-6.81-1.75-10.9 1.06-2.89 1.06-2.89 2.44-5.69 1.35-2.78 2.58-5.38 3.56-8.31h2c0.33-1.98 0.66-3.96 1-6h2c0.275-0.873 0.549-1.75 0.832-2.64 1.1-3.16 2.39-6.04 3.86-9.04 2.61-5.61 4.98-11.3 7.19-17.1 0.31-0.779 0.621-1.56 0.94-2.36 2.06-5.52 2.48-10 2.18-15.9-4.82-3.26-4.82-3.26-10.4-3.6-1.55 0.551-3.08 1.15-4.59 1.8-1.98 0.797-1.98 0.797-4.98 0.797v2c-2.97 0.495-2.97 0.495-6 1v2c-6.75 4-6.75 4-9 4v2c-1.98 0.495-1.98 0.495-4 1v2c-5.8 4.32-10.6 6.92-18 6-4-3.14-7.51-7.52-10-12v-3h-2c-0.66-2.31-1.32-4.62-2-7 4.86-5.38 12.3-7.74 18.9-10.4 9.51-3.9 18-9.51 26.6-15 8.78-5.58 8.78-5.58 11.5-5.58v-2c0.531-0.254 1.06-0.508 1.61-0.77 3.08-1.5 5.96-2.9 8.7-4.98 1.69-1.25 1.69-1.25 4.69-1.25v-2c2.18-1.39 4.37-2.67 6.62-3.94 10.8-6.24 20.3-13.9 29.4-22.4 5.55-4.68 5.55-4.68 9.04-4.62z" fill="#000002"/>
<path transform="translate(215,489)" d="m0 0c2.68 1.33 5.1 2.94 7.56 4.62 11.1 7.28 22.7 13.3 35.4 17.4v2c2.31 0.33 4.62 0.66 7 1v2c1.18 0.0928 1.18 0.0928 2.38 0.188 3.99 0.893 7.01 2.39 10.6 4.27 3.67 1.88 7.4 3.62 11.1 5.36 0.676 0.314 1.35 0.628 2.05 0.952 1.61 0.746 3.22 1.49 4.83 2.24v2c2.97 0.99 2.97 0.99 6 2v2c0.557 0.227 1.11 0.454 1.69 0.688 8.14 4.62 11.9 12.7 14.3 21.3 3.22 13.5 0.685 28.6-5 41-0.674 1.66-1.34 3.33-2 5h-2c-0.268 0.722-0.536 1.44-0.812 2.19-1.19 2.81-2.46 5.3-4.19 7.81h-2c-0.34 0.835-0.34 0.835-0.688 1.69-4.34 7.65-13 12.4-21.1 15.2-20 5.08-39.8-5.07-57.6-13.4-5.32-2.45-10.8-4.4-16.3-6.3-2.8-1.01-5.44-2.14-8.14-3.38-5.2-2.16-10.4-2.5-16-3.02-5.66-0.586-10.2-1.96-15.2-4.79-0.699-0.336-1.4-0.673-2.12-1.02-2.55-1.33-3.57-2.42-4.88-4.98 0.34-8.83 4.49-18.2 10-25 5.87 0.487 10.3 1.68 15.5 4.31 0.658 0.318 1.32 0.635 1.99 0.962 3.22 1.56 6.4 3.19 9.57 4.85 4.61 2.36 9.53 3.89 14.4 5.59 4.06 1.49 7.93 3.25 11.8 5.09 4.46 2 9.07 3.6 13.7 5.2v2c1.36 0.0928 1.36 0.0928 2.75 0.188 3.66 0.504 6.74 1.78 10.1 3.25 12 5.13 24.5 6.65 37.1 2.56v-2c1.65-1.35 3.32-2.69 5-4 0.33-0.66 0.66-1.32 1-2h2c0.122-0.57 0.245-1.14 0.371-1.73 0.661-2.39 1.63-4.41 2.69-6.65 2.86-7.11 3.42-14.9 1.12-22.2-5.93-11.9-17.7-17.1-29.2-22.4-1.43-0.677-1.43-0.677-2.88-1.37-10.8-5.05-21.9-9.49-33.1-13.6v-2c-0.887-0.0619-1.77-0.124-2.69-0.188-4.87-0.685-9.22-2.66-13.8-4.48-4.71-1.76-9.5-3.07-14.4-4.34-3.4-1.06-6.22-2.02-9.19-3.99-1.3-3.55-1.19-5.41-0.0312-9 5.29-10.4 8.95-17.2 21-13z" fill="#000002"/>
<path transform="translate(1256,1080)" d="m0 0c4.35 0.496 6.3 1.8 9.31 4.94 0.697 0.71 1.39 1.42 2.11 2.15 1.57 1.91 1.57 1.91 1.57 3.91 0.99 0.33 1.98 0.66 3 1v2c0.578 0.268 1.15 0.536 1.75 0.812 2.31 1.22 4.27 2.49 6.25 4.19v2c0.541 0.247 1.08 0.495 1.64 0.75 2.89 1.53 5.46 3.34 8.11 5.25 0.985 0.701 1.97 1.4 2.98 2.12 0.748 0.619 1.5 1.24 2.27 1.88v2c1.98 0.495 1.98 0.495 4 1v2c1.98 0.495 1.98 0.495 4 1v2c0.959 0.186 0.959 0.186 1.94 0.375 0.681 0.206 1.36 0.412 2.06 0.625 0.33 0.66 0.66 1.32 1 2 1.48 0.495 1.48 0.495 3 1l5 5c1.26 0.917 2.53 1.81 3.81 2.69 1.05 0.763 2.1 1.53 3.19 2.31v2c0.554 0.257 1.11 0.513 1.68 0.777 2.65 1.4 5.01 3.04 7.45 4.79 3.33 2.4 3.33 2.4 6.88 4.44v2c0.99 0.371 0.99 0.371 2 0.75 2.89 1.21 5.68 2.55 8.47 3.98 2.03 1.02 4.07 1.99 6.12 2.95 1.28 0.608 2.56 1.22 3.84 1.82 0.628 0.284 1.26 0.569 1.9 0.862 4.41 2.12 4.41 2.12 5.63 4.67 0.0273 1.97 0.0273 1.97-0.973 4.97h-2c-0.33 1.65-0.66 3.3-1 5h-2c-0.0825 0.709-0.165 1.42-0.25 2.15-0.925 3.52-2.54 5.6-4.75 8.48-3.03 3.9-3.03 3.9-5 8.38h-2c-0.369 1.06-0.369 1.06-0.746 2.14-1.41 3.22-3.2 5.73-5.32 8.54-2.7 3.52-2.7 3.52-4.94 7.31h-2c-0.33 1.32-0.66 2.64-1 4h-2c-0.186 0.66-0.371 1.32-0.562 2-1.73 3.61-4.02 6.13-6.71 9.08-1.86 2-1.86 2-3.79 4.67-2.43 2.82-4.6 4.58-7.94 6.25-4.01-0.721-7.01-2.24-10-5v-2c-0.99-0.33-1.98-0.66-3-1-0.914-1.75-0.914-1.75-1-4 1.48-2.4 1.48-2.4 3.62-4.94 1.11-1.32 1.11-1.32 2.24-2.66 2.29-2.57 4.67-5 7.13-7.4 0.722-0.928 1.44-1.86 2.19-2.81 0.598-0.722 1.2-1.44 1.81-2.19h2c0.495-1.98 0.495-1.98 1-4h2c0.289-0.578 0.578-1.15 0.875-1.75l3.12-6.25h2c0.464-1.18 0.464-1.18 0.938-2.38 1.06-2.62 1.06-2.62 2.06-4.62 0.59-4.23-0.0255-6.4-2.5-9.75-0.696-0.859-0.696-0.859-1.41-1.73-1.09-1.52-1.09-1.52-1.09-3.52-1.48-0.495-1.48-0.495-3-1v-2h-3l-4-4c-2.63-1.25-2.63-1.25-5-2v-2c-1.37-0.137-2.75-0.233-4.12-0.312-0.766-0.058-1.53-0.116-2.32-0.176-5 0.956-8.18 4.73-11 8.76-0.748 1.17-1.49 2.36-2.21 3.54-0.578 0.922-0.578 0.922-1.17 1.86-2.68 4.32-5.08 8.7-7.21 13.3h-2c-0.227 0.639-0.454 1.28-0.688 1.94-1.31 2.06-1.31 2.06-3.56 3.06-3.95 0-5.66-1.6-8.75-4-0.554-0.387-1.11-0.773-1.68-1.17-2.68-1.98-4.19-3.47-5.34-6.62 0.0234-3.21 0.0234-3.21 2.41-6.21 1.08-1.02 2.18-2.02 3.3-3 4.73-4.3 4.73-4.3 8.58-9.38 0.571-0.866 1.14-1.73 1.73-2.62h2c0.495-1.98 0.495-1.98 1-4h2c0.33-1.65 0.66-3.3 1-5h2v-9h-2c-0.578-0.908-1.15-1.82-1.75-2.75-2.41-3.47-4.73-5.01-8.25-7.25v-2c-0.743-0.289-1.48-0.578-2.25-0.875-2.32-0.948-4.53-1.97-6.75-3.12v-2c-1.24-0.144-2.47-0.289-3.75-0.438-2.27-0.266-4.16-0.53-6.31-1.31-3.45-0.445-5.94 1.2-8.94 2.75-2.8 2.35-3.84 3.51-5 7-0.99 0.495-0.99 0.495-2 1-1.15 1.74-1.15 1.74-2.25 3.88-0.44 0.815-0.879 1.63-1.33 2.47-0.702 1.31-0.702 1.31-1.42 2.66-0.978 1.79-1.96 3.58-2.94 5.38-1.02 1.87-2.04 3.75-3.06 5.62-1.12 2.06-2.25 4.13-3.38 6.19-0.503 0.922-1.01 1.84-1.52 2.79-0.545 1-0.545 1-1.1 2.02h-2c-0.247 0.639-0.495 1.28-0.75 1.94-1.25 2.06-1.25 2.06-3.06 2.87-3.03 0.27-4.09-0.759-6.44-2.62-1.06-0.814-1.06-0.814-2.14-1.64-0.531-0.509-1.06-1.02-1.61-1.54v-2c-0.99-0.33-1.98-0.66-3-1 0.11-4.95 1.36-7.89 4.07-12 0.631-0.967 1.26-1.93 1.91-2.93 0.665-1 1.33-2 2.02-3.04 0.643-0.975 1.29-1.95 1.95-2.95 1.94-2.92 3.9-5.83 5.86-8.73 0.667-1 1.33-2 2.02-3.03 0.958-1.41 0.958-1.41 1.94-2.86 0.86-1.28 0.86-1.28 1.74-2.58 0.493-0.609 0.985-1.22 1.49-1.84h2c0.33-1.32 0.66-2.64 1-4h2c0.289-0.763 0.578-1.53 0.875-2.31 1.12-2.69 1.12-2.69 3.12-5.69h2c0.33-1.32 0.66-2.64 1-4h2c0.278-0.99 0.278-0.99 0.562-2 1.73-3.61 4.01-6.12 6.7-9.06 1.9-2.05 1.9-2.05 3.99-4.94 0.866-0.99 0.866-0.99 1.75-2h3c0.33-0.99 0.66-1.98 1-3z" fill="#000002"/>
<path transform="translate(698,1325)" d="m0 0c17.5-0.212 35.1 0.0914 52.5 2.54 3.32 0.431 6.58 0.662 9.92 0.836 5.47 0.384 10.7 1.34 16.1 2.5 0.758 0.162 1.52 0.323 2.3 0.49 4.45 1.02 8.24 2.4 12.3 4.64-0.382 5.44-1.31 10.3-2.85 15.5-2.47 8.86-3.7 17.8-4.9 26.9-0.367 2.77-0.748 5.55-1.13 8.32-1.3 9.49-2.46 19-3.4 28.5-0.481 4.79-1.12 9.52-1.84 14.3-1.27 9.19-0.968 18.3-0.755 27.6 0.048 2.25 0.078 4.5 0.106 6.75 0.0427 1.98 0.0427 1.98 0.0862 4-0.153 1.54-0.153 1.54-0.309 3.11-14 9.3-48.8 0.311-65-2-1.33-0.158-2.67-0.313-4-0.465-17.6-2.04-17.6-2.04-22-7.54-0.428-5.22-0.0302-9.1 2-14 1.53-1.53 2.93-1.17 5.06-1.19 0.733-0.0142 1.47-0.0284 2.22-0.043 2.94 0.249 5.64 0.942 8.49 1.69 10.4 2.54 21.6 3.78 32.3 4.1 1.25 0.0425 2.5 0.0851 3.79 0.129 3.39-0.409 3.39-0.409 5.48-3.45 5.41-10.5 5.85-20.6 5.67-32.2-1.49-0.495-1.49-0.495-3-1v-2c-4.99-1.61-9.29-2.28-14.6-2.38-1.04-0.0255-1.04-0.0255-2.1-0.0515-2.19-0.0526-4.38-0.0932-6.57-0.132-2.2-0.044-4.41-0.0908-6.61-0.143-1.99-0.0463-3.98-0.0839-5.97-0.121-3.17-0.174-3.17-0.174-6.17-1.17-1.39-7.25-1.27-14.2 2-21 5.82-0.237 10.4 0.316 16 2 15.3 3.26 15.3 3.26 30 0 3.71-7.71 3.49-17.1 3.44-25.4 0.02-1.14 0.04-2.29 0.0605-3.47 0.0459-6.47 0.0459-6.47-2.4-12.3-3.78-3.2-7.06-2.97-11.8-3.06-0.78-0.0184-1.56-0.0368-2.37-0.0558-2.51-0.0588-5.02-0.111-7.53-0.163-33.8-0.715-33.8-0.715-37.4-2.5-0.0819-1.87-0.14-3.75-0.188-5.62-0.0522-1.57-0.0522-1.57-0.105-3.16 0.334-3.66 1.48-6.04 3.29-9.21z" fill="#000002"/>
<path transform="translate(1336,814)" d="m0 0c6.02 0.493 11.5 1.59 17.2 3.31 11.7 3.28 23.7 4.69 35.8 6.19 4.06 0.507 8.11 1.03 12.2 1.56 6.39 0.831 12.8 1.66 19.2 2.46 2.43 0.32 4.86 0.666 7.29 1.04 9.31 1.39 18.3 1.63 27.6 1.44 2.75-0.0532 5.49-0.093 8.24-0.125 1.19-0.0232 2.39-0.0464 3.61-0.0703 2.83 0.195 2.83 0.195 4.83 2.2 0.259 1.82 0.259 1.82 0.266 4.05 0.00411 0.832 0.00822 1.66 0.0125 2.52-0.00927 0.904-0.0185 1.81-0.0281 2.74-0.00604 0.943-0.0121 1.89-0.0183 2.86-0.124 9.02-0.896 17.9-1.9 26.9-0.367 3.28-0.714 6.57-1.06 9.85-0.256 2.39-0.512 4.77-0.77 7.16-0.178 1.66-0.178 1.66-0.359 3.35-2.72 24.5-2.72 24.5-7.14 29.6-5.36 1.86-9.78 0.769-15-1-2.95-4.42-1.84-7.9-1-13 0.459-2.09 0.939-4.17 1.44-6.25 2.27-9.52 3.71-19 4-28.8 0.0599-1.81 0.0599-1.81 0.121-3.66-0.73-4.28-2.15-5.66-5.56-8.28-9.31-3.78-20.1-3.66-30-4v2h-2c-3.7 8.84-3.46 17.6-3.51 27-0.0157 2.07-0.0486 4.15-0.0825 6.22-0.00709 1.23-0.0142 2.45-0.0215 3.71-0.385 3.04-0.385 3.04-1.76 4.94-3.6 2.44-8.48 1.54-12.6 1.1-2.85-0.776-5.29-1.77-8-3-0.368-6.26 0.716-11.6 2.2-17.7 3.7-13.8 3.7-13.8 0.801-27.3-2.3-1.19-2.3-1.19-5.06-1.69-0.996-0.227-1.99-0.454-3.02-0.688-0.963-0.206-1.93-0.413-2.92-0.625-0.726-0.206-1.45-0.413-2.2-0.625-7.67-2.1-17.6-3.07-25.1-0.043-3.54 2.16-5.29 3.41-6.68 7.39-2.17 9.86-2.38 19.2-2.18 29.2 0.0353 2.33 0.0661 4.66 0.0913 6.99 0.0167 1.43 0.0395 2.87 0.07 4.3 0.0649 4.35-0.167 8.5-1.04 12.8-4.46 2.23-10.3 1.48-15 0.125-3.61-3.84-4.01-8.93-3.99-14.1 0.182-4.66 0.582-9.3 1.01-13.9 0.228-2.46 0.435-4.92 0.639-7.38 0.661-7.73 1.49-15.4 2.87-23 0.484-2.78 0.867-5.55 1.22-8.35 0.115-0.909 0.231-1.82 0.35-2.75 0.229-1.83 0.453-3.67 0.672-5.5 0.946-7.35 2.06-14.9 6.23-21.1z" fill="#000002"/>
<path transform="translate(1112 202)" d="m0 0c5.06 2.68 7.71 5.24 10.2 10.4 1.95 8.79 0.444 17.6-0.746 26.5-0.433 3.37-0.757 6.72-1 10.1-0.398 5.25-1.19 10.4-2.03 15.6-0.583 4.02-0.888 8.03-1.12 12.1-0.389 3.56-1.1 6.99-1.82 10.5-0.833 4.24-1.43 8.5-2.02 12.8-0.128 0.912-0.256 1.82-0.388 2.76-1.33 9.51-2.65 19-3.54 28.6-1.64 16.9-1.64 16.9-7.42 22.2-3.3 2-5.7 1.51-9.42 1.02-5.8-1.52-11.9-5.02-15.7-9.71 0.188-2.62 0.188-2.62 1-6 0.15-0.719 0.299-1.44 0.453-2.18 0.71-3.4 1.49-6.65 2.61-9.95 2.34-7.17 2.05-14.4 1.94-21.9-0.518-0.241-1.04-0.482-1.57-0.73-2.56-1.34-4.97-2.85-7.4-4.39-7.76-4.86-15.3-8.15-24-10.9-1.05-0.362-2.11-0.724-3.19-1.1-3.62-1.16-6.02-1.42-9.81-0.902-4.33 2.4-7.77 5.54-10.9 9.38-0.701 0.866-1.4 1.73-2.12 2.62h-2c-0.206 0.681-0.413 1.36-0.625 2.06-2.01 4.28-4.85 8.78-9.28 10.8-2.96 0.182-4.3-0.889-6.72-2.56-0.776-0.519-1.55-1.04-2.35-1.57-2.09-1.8-3-3.21-4.02-5.74h-2c-1.28-3.41-1.03-5.62 0.375-8.88 2.32-4.29 5.54-6.72 9.45-9.53 2.67-1.95 4.87-4.23 7.18-6.59 4.65-4 4.65-4 7-4 0.495-1.49 0.495-1.49 1-3h2c0.495-1.49 0.495-1.49 1-3 1.56-1.61 1.56-1.61 3.44-3.19 0.617-0.53 1.23-1.06 1.87-1.61 1.69-1.21 1.69-1.21 3.69-1.21 0.33-0.99 0.66-1.98 1-3h2v-2c1.4-1.38 1.4-1.38 3.38-3 4.45-3.76 8.48-7.86 12.5-12.1 2.1-1.94 2.1-1.94 4.1-1.94v-2c1.68-1.73 1.68-1.73 3.88-3.62 0.719-0.632 1.44-1.26 2.18-1.91 1.95-1.46 1.95-1.46 3.95-1.46 0.495-1.49 0.495-1.49 1-3h2c0.495-1.49 0.495-1.49 1-3h2c0.495-1.49 0.495-1.49 1-3 1.56-1.61 1.56-1.61 3.44-3.19 0.617-0.53 1.23-1.06 1.87-1.61 1.69-1.21 1.69-1.21 3.69-1.21 0.33-0.99 0.66-1.98 1-3 2-1.82 2-1.82 4.44-3.69 0.803-0.623 1.61-1.25 2.43-1.89 2.13-1.43 2.13-1.43 4.13-1.43v-2c6.44-3.03 10.4-4.16 17.1-0.812zm-20.9 29.2c-0.79 0.626-1.58 1.25-2.39 1.9-0.592 0.57-1.18 1.14-1.79 1.73v2c-1.32 0.33-2.64 0.66-4 1v2c-0.99 0.33-1.98 0.66-3 1v2c-0.585 0.268-1.17 0.536-1.77 0.812-7.67 4.09-14.5 11.8-20.2 18.2v2h-2c-2.31 2.72-2.31 2.72-1.62 5.19 0.206 0.598 0.412 1.2 0.625 1.81h3v2c14.4 8.45 14.4 8.45 30 14 0.99-0.33 1.98-0.66 3-1 7.27-17.2 7.77-39.6 10-58-4.5-0.175-6.28 0.506-9.81 3.38z" fill="#000002"/>
<path transform="translate(928,1320)" d="m0 0c1.5 3 1.16 6.09 1.18 9.38 0.0202 1.56 0.0416 3.12 0.064 4.68 0.0112 0.825 0.0224 1.65 0.0339 2.5 0.284 18.7 1.95 36.9 4.73 55.4 0.263 1.82 0.526 3.65 0.789 5.47 2.83 19.1 5.9 38.8 11.9 57.2 0.355 2.3 0.355 2.3-0.177 4.33-2.22 2.98-5.11 3.19-8.59 3.82-0.723 0.145-1.45 0.289-2.19 0.438-2.37 0.466-4.75 0.903-7.12 1.34-0.81 0.152-1.62 0.304-2.45 0.46-50.8 9.49-50.8 9.49-67.7 0.352-8.94-6.39-15.3-14.9-18.4-25.4-1.84-11.8-1.49-22.9 3-34h2c0.144-0.619 0.289-1.24 0.438-1.88 0.562-2.12 0.562-2.12 1.56-4.12h2c0.373-0.889 0.373-0.889 0.754-1.8 1.43-2.52 2.86-3.74 5.18-5.45 1.03-0.781 1.03-0.781 2.09-1.58 1.97-1.17 1.97-1.17 4.97-1.17v-2c0.564-0.221 1.13-0.443 1.71-0.671 2.6-1.02 5.19-2.05 7.79-3.08 1.33-0.522 1.33-0.522 2.69-1.05 7.83-3.11 15.2-6.57 22.2-11.1 1.54-0.973 1.54-0.973 3.12-1.96 2.53-1.87 2.53-1.87 3.44-4.32 0.00567-4.04-1.16-7.51-2.37-11.3-5.47-18.5-5.47-18.5-1.62-26.4 7.05-9.26 18.4-8.41 29-8zm-34 74c-1.18 0.269-2.35 0.539-3.57 0.816-12.7 3.05-12.7 3.05-22.9 10.9-3.46 5.84-3.46 12.7-3.54 19.3-0.0129 0.808-0.0258 1.62-0.0391 2.45 0.344 7.37 3.9 14.2 8.92 19.5 6.53 5.7 11.7 5.22 20.2 5.25 1.2 0.0206 2.41 0.0412 3.65 0.0625 6.74 0.0295 13.2-0.0612 19.3-3.31 4.03-8.06-0.0409-22.7-1.53-31.2-0.398-2.37-0.711-4.72-0.969-7.1-0.508-3.75-1.32-7.1-2.5-10.7-0.205-0.646-0.41-1.29-0.621-1.96-1.04-2.88-1.7-4.7-4.5-6.11-4.13 0.0898-7.9 1.03-11.9 2.06z" fill="#000002"/>
<path transform="translate(782 123)" d="m0 0c1.23 0.00737 1.23 0.00737 2.48 0.0149 10.8 0.204 21.8 1.22 30.4 8.3 1.18 0.928 1.18 0.928 2.38 1.88 3.07 4.02 3.71 7.84 3.38 12.8-0.632 2.79-1.29 4.88-2.75 7.31-6.65-0.256-11.3-2.43-17.1-5.5-10.2-5.27-22.5-7.49-33.8-4.75-3.21 1.31-4.77 2.71-7.06 5.25h-2c-2.68 6.89-4.75 12.9-1.69 20.1 7.41 8.1 17.3 11.6 27.4 15.3 8.73 3.25 17 7.41 25.3 11.6 1.33 0.668 2.67 1.33 4 2v2c0.576 0.244 1.15 0.487 1.75 0.738 6.43 3.6 11 10.4 13.3 17.3 2.78 13.9 1.42 24.8-6.25 36.6-1.48 2.04-2.82 3.8-4.75 5.42h-2v2c-0.922 0.507-0.922 0.507-1.86 1.02-0.808 0.446-1.62 0.892-2.45 1.35-0.801 0.441-1.6 0.882-2.43 1.34-1.8 1.02-3.54 2.14-5.26 3.29-8.38 2.96-16.7 3.48-25.5 3.39-2.01-0.0161-4.01-4.93e-5 -6.02 0.019-12.5-0.037-23.3-1.8-33.5-9.41-4.98-5.23-6.39-9.42-6.27-16.5 0.356-3.29 1.52-5.71 3.27-8.48 3.41 0.787 6.69 1.87 10 3v2c1.09 0.174 1.09 0.174 2.2 0.352 2.88 0.666 5.07 1.65 7.68 3.02 0.875 0.447 1.75 0.895 2.65 1.36 0.816 0.419 1.63 0.838 2.47 1.27 10.3 5.06 19.6 5.53 30.6 3.25 5.11-1.89 9.28-4.11 11.8-9.06 0.278-1.08 0.278-1.08 0.562-2.19h2c-0.172-10.3-0.172-10.3-5-19v-2c-0.585-0.291-1.17-0.583-1.77-0.883-1.35-0.675-2.69-1.35-4.03-2.04-5.18-2.64-10.5-4.96-15.8-7.2-0.82-0.347-1.64-0.694-2.48-1.05-4.25-1.78-8.49-3.44-12.9-4.82v-2c-0.866-0.103-1.73-0.206-2.62-0.312-3.54-0.721-6.22-1.96-9.38-3.69v-2c-0.742-0.268-1.49-0.536-2.25-0.812-2.64-1.14-4.61-2.28-6.75-4.19v-2h-2c-6.65-8.35-8.51-14.9-8.44-25.4-0.02-0.998-0.04-2-0.0605-3.03 0.00633-9.63 3.11-15.7 9.6-22.7 6.85-6.79 13.6-9.55 22.9-11.9 0.691-0.179 1.38-0.358 2.09-0.542 5.4-1.32 10.5-1.81 16-1.77z" fill="#000002"/>
<path transform="translate(1307 991)" d="m0 0c1.05-0.00258 2.1-0.00516 3.19-0.00781 2.91 0.101 5.7 0.311 8.59 0.61 6.49 0.601 13 0.801 19.5 0.969 2.18 0.0559 4.35 0.116 6.53 0.177 4.63 0.13 9.26 0.253 13.9 0.377 5.36 0.144 10.7 0.29 16.1 0.44 2.11 0.0583 4.23 0.113 6.34 0.168 8.21 0.224 16.4 0.657 24.6 1.29 2.83 0.0879 4.68-0.0799 7.33-0.896 4.68-0.229 9.37-0.185 14.1-0.188 1.29-0.0122 2.58-0.0245 3.92-0.0371 1.85-0.0029 1.85-0.0029 3.74-0.00586 1.13-0.00411 2.26-0.00822 3.43-0.0125 2.85 0.243 2.85 0.243 5.85 2.24-0.33 2.31-0.66 4.62-1 7h-2c-0.206 1.3-0.412 2.6-0.625 3.94-1.21 5.57-4.03 9.54-7.38 14.1-0.99 1.49-0.99 1.49-2 3-2.64 0.18-2.64 0.18-6.25-0.125-0.691-0.0542-1.38-0.108-2.09-0.164-4.73-0.391-9.44-0.893-14.2-1.39-2.44-0.254-4.87-0.508-7.31-0.762-1.26-0.132-2.52-0.264-3.82-0.4-11.9-1.21-23.9-1.92-35.8-2.52-1.08-0.0552-1.08-0.0552-2.17-0.112-1.94-0.0987-3.89-0.192-5.83-0.286-3.55-0.251-7.01-0.746-10.5-1.25-2.12-0.137-4.25-0.242-6.37-0.316-1.15-0.0419-2.3-0.0838-3.49-0.127-1.77-0.059-1.77-0.059-3.58-0.119-1.21-0.0432-2.42-0.0864-3.66-0.131-2.97-0.106-5.93-0.208-8.9-0.307v2c0.99 0.33 1.98 0.66 3 1 1.36 1.65 2.69 3.31 4 5 0.99 0.495 0.99 0.495 2 1v2c0.598 0.289 1.2 0.578 1.81 0.875 2.19 1.12 2.19 1.12 5.19 3.12v2c0.584 0.264 1.17 0.529 1.77 0.801 2.32 1.25 3.98 2.61 5.92 4.39 2.91 2.61 5.89 5.07 9 7.44 3.37 2.58 6.31 5.37 9.31 8.38 1.72 1.28 3.47 2.5 5.25 3.69 1.75 1.31 1.75 1.31 3.39 3.04 3.51 3.38 7.46 6.12 11.4 8.95 0.815 0.594 1.63 1.19 2.47 1.8 0.784 0.565 1.57 1.13 2.38 1.71 0.713 0.514 1.43 1.03 2.16 1.56 2.01 1.41 2.01 1.41 4.93 2.24v2c0.66 0.227 1.32 0.454 2 0.688 3.89 1.7 7.64 3.71 11 6.31v2h2c0.492 6.76-0.957 11-4 17-0.495 1.13-0.99 2.27-1.5 3.44-1.5 2.56-1.5 2.56-3.44 4.06-2.06 0.5-2.06 0.5-4-0.0625-2.66-1.85-4.8-4.13-7.06-6.44-2.54-2.57-5.08-5.13-7.62-7.69-0.668-0.676-1.34-1.35-2.02-2.05-0.967-0.972-0.967-0.972-1.95-1.96-0.871-0.879-0.871-0.879-1.76-1.78-1.77-1.73-1.77-1.73-4.64-3.52v-2c-0.594-0.264-1.19-0.529-1.8-0.801-2.28-1.24-3.63-2.49-5.39-4.39-3.31-3.43-6.88-6.29-10.7-9.14-2.22-1.76-4.21-3.57-6.11-5.68v-2c-0.584-0.264-1.17-0.529-1.77-0.801-2.32-1.25-3.98-2.61-5.92-4.39-2.93-2.63-5.92-5.07-9.06-7.44-3.28-2.51-5.79-5.03-8.25-8.38-0.66-0.33-1.32-0.66-2-1v-2c-0.804-0.34-0.804-0.34-1.62-0.688-3.2-1.77-5.67-3.85-8.38-6.31v-2c-0.866-0.379-0.866-0.379-1.75-0.766-6.18-3.39-10.5-9.39-14.2-15.2-0.66-0.33-1.32-0.66-2-1-2.36-5.78-1.86-9.1 0-15h2c0.227-0.763 0.454-1.53 0.688-2.31 1.6-3.28 3.07-4.11 6.31-5.69 3.23-1.08 5.6-1.13 9-1.12z" fill="#000002"/>
<path transform="translate(1269 313)" d="m0 0c0.763 0.722 1.53 1.44 2.31 2.19v2c0.57 0.237 1.14 0.474 1.73 0.719 7.79 4.39 13.3 13.5 17.3 21.3 0.352 0.678 0.704 1.36 1.07 2.05 2.43 5.43 1.91 10.2 0.934 15.9h-2c-0.0993 0.592-0.199 1.18-0.301 1.79-1.23 3.88-4.26 6.19-7.7 8.21-3.44-0.125-3.44-0.125-6-1v-2h-2c-0.268-0.753-0.536-1.51-0.812-2.28-7.13-19.9-7.13-19.9-20.2-35.7v-2c-11.2-4.62-21.7-6.98-33.4-3.13-4.04 1.76-7.61 4.13-11.2 6.61-2.35 1.52-2.35 1.52-5.35 2.52v2c-1.61 1.55-1.61 1.55-3.75 3.31-3.17 2.69-5.73 5.38-8.25 8.69-0.804 0.763-1.61 1.53-2.44 2.31-2.71 2.84-4.52 5.71-6.45 9.11-0.367 0.519-0.735 1.04-1.11 1.57h-2c-0.113 0.535-0.227 1.07-0.344 1.62-0.809 2.93-1.98 5.63-3.16 8.44-3.93 10.2-3.72 19.2-2.5 29.9h2c1.52 2.98 2.94 5.82 4 9h2c2.12 1.88 2.12 1.88 4 4v2c1.02 0.371 1.02 0.371 2.06 0.75 2.79 1.19 5.33 2.6 7.94 4.12 7.2 4.07 14.8 7.43 22.3 10.8 2.69 1.33 2.69 1.33 4.69 3.33 0 2.38 0 2.38-1 5-5.69 4.65-10.1 4.59-17.2 4.39-5.18-0.533-9.16-2.02-13.8-4.39-1.31-0.63-1.31-0.63-2.66-1.27-6.69-3.25-12.2-6.31-17.3-11.7-0.691-0.67-1.38-1.34-2.09-2.03-0.732-0.712-1.46-1.42-2.22-2.16-0.697-0.674-1.39-1.35-2.11-2.04-1.57-1.77-1.57-1.77-1.57-3.77h-2c-0.33-0.99-0.66-1.98-1-3-0.66-0.33-1.32-0.66-2-1-1.07-1.96-1.07-1.96-2.12-4.38-0.353-0.791-0.706-1.58-1.07-2.4-0.805-2.23-0.805-2.23-0.805-5.23h-2c-4.08-11.3-6.16-23.4-2-35 0.206-0.683 0.412-1.37 0.625-2.07 2.34-7.64 5.78-15.4 10.4-21.9h2c0.268-0.743 0.536-1.49 0.812-2.25 1.14-2.64 2.28-4.61 4.19-6.75h2c0.247-0.557 0.495-1.11 0.75-1.69 3.01-5.56 7.28-9.2 12.2-13 0.608-0.485 1.22-0.971 1.84-1.47 3.28-2.56 6.21-4.54 10.2-5.84v-2c1.98-0.33 3.96-0.66 6-1v-2c24.7-10.6 48-5.63 68.7 10.8z" fill="#000002"/>
<path transform="translate(138,664)" d="m0 0c12.8-0.374 12.8-0.374 18 2 1 1 1 1 1.21 3.56-0.244 4.04-1.29 7.61-2.52 11.4-3.17 10.4-5.89 20.6-6.25 31.6-0.0425 1.3-0.0851 2.6-0.129 3.94 0.41 3.71 0.41 3.71 3.4 6.35 7.56 4.93 16 5.43 24.8 5.59 0.778 0.0223 1.56 0.0446 2.36 0.0676 3.33-0.0134 5.7-0.234 8.57-1.97 2.28-3.67 2.72-7.22 3.26-11.5 0.182-1.27 0.182-1.27 0.367-2.56 0.827-5.97 1.41-11.9 1.73-17.9 0.194-2.36 0.384-4.35 1.21-6.57 4.47-2.98 8.76-2.49 14-2 3.62 1.25 3.62 1.25 6 3 1.28 3.26 0.817 5.58 0.0625 8.94-1.72 9.26-1.23 18.7-1.06 28.1h2c0.33 0.99 0.66 1.98 1 3 5.3 3.67 10.3 5.01 16.6 6.12 0.878 0.167 1.76 0.334 2.66 0.506 5.14 0.958 10.3 1.75 15.5 2.43 13.1 1.75 13.1 1.75 17.3 5.94 0.256 2.74 0.38 5.32 0.375 8.06 0.00129 0.766 0.00258 1.53 0.00391 2.32-0.113 6.05-1.3 10.3-4.38 15.6-6.78 0.672-12.6-0.278-19.1-2.25-10.5-3.15-21.1-4.72-31.9-6.3-3.57-0.531-7.13-1.11-10.7-1.69-9.07-1.47-18.2-2.75-27.3-3.76-0.813-0.0917-1.63-0.183-2.46-0.278-11.8-1.31-23.5-1.93-35.4-1.74-0.922 0.0137-1.84 0.0274-2.79 0.0415-0.818 0.018-1.64 0.0359-2.48 0.0544-1.88-0.0818-1.88-0.0818-2.88-1.08-0.26-4.7-0.194-9.42-0.188-14.1-6.04e-5 -0.69-1.21e-4 -1.38-1.83e-4 -2.09 0.0107-8.54 0.213-16.9 1.62-25.3 0.697-4.25 1.14-8.5 1.57-12.8 0.168-1.61 0.336-3.21 0.504-4.82 0.338-3.28 0.655-6.56 0.961-9.84 0.157-1.6 0.315-3.19 0.473-4.79 0.0625-0.726 0.125-1.45 0.189-2.2 0.494-4.87 1.75-8.64 3.87-13z" fill="#000002"/>
<path transform="translate(886,129)" d="m0 0c20.4 1.67 40.4 6.08 60.4 10.1 1.29 0.258 2.59 0.515 3.92 0.781 6.57 1.32 13.1 2.66 19.6 4.16 1.02 0.23 1.02 0.23 2.06 0.464 7.73 1.76 15 3.5 21.9 7.54-1.58 16.6-1.58 16.6-5 20-5.22-0.213-9.21-1.8-13.9-4.06-2.03-0.9-3.95-1.47-6.11-1.94v-2c-0.652-0.049-1.3-0.098-1.98-0.148-4.96-0.424-9.35-1.01-14-2.85v2c-0.619 0.255-1.24 0.509-1.87 0.771-4.65 2.69-5.7 8.76-7.11 13.7-1.04 4.01-2.01 8.04-2.95 12.1-0.35 1.47-0.699 2.93-1.05 4.4-2.8 11.8-5.23 23.7-7.51 35.6-0.762 3.86-1.62 7.7-2.5 11.5-2.67 10.1-2.67 10.1-1 20 0.678 6.9-0.41 12.6-3 19-9.26 2.19-20.7 0.366-29.1-4.1-1.69-1.21-1.69-1.21-3.94-3.9-0.465-6.51 4.39-13.6 7.15-19.4 2.08-4.46 3.47-8.67 4.43-13.5 0.624-3.09 1.55-6.08 2.43-9.11 3.14-11.9 5.65-23.9 7.87-36 0.81-4.39 1.72-8.74 2.69-13.1 3.13-13.4 3.13-13.4 2.44-26.9-4.36-1.02-8.69-1.3-13.1-1.54-1.15-0.0645-1.15-0.0645-2.33-0.13-2.44-0.136-4.89-0.266-7.34-0.397-1.66-0.0915-3.33-0.183-4.99-0.275-4.07-0.224-8.13-0.444-12.2-0.662-0.346-10.6-0.346-10.6 1.88-14.9 0.522-1.07 0.522-1.07 1.05-2.15 0.944-1.68 2-3.3 3.07-4.91z" fill="#000002"/>
<path transform="translate(1171 1187)" d="m0 0c4.1 2 5.43 5.76 7.43 9.72 0.872 1.65 1.75 3.3 2.62 4.94 0.418 0.79 0.835 1.58 1.27 2.4 2.82 5.22 5.92 10 10.2 14.2 3 3.67 3 3.67 3 6h2c1.35 1.99 2.68 3.99 4 6 1.31 1.35 2.65 2.69 4 4 5 5.4 5 5.4 5 9 1.48 0.495 1.48 0.495 3 1v2h2c1.52 1.72 1.52 1.72 3.25 4.06 2.3 3.06 4.64 6.01 7.19 8.88 2.56 3.06 2.56 3.06 2.56 5.06 0.99 0.33 1.98 0.66 3 1 1.65 1.71 1.65 1.71 3.38 3.81 2.65 3.15 5.39 5.64 8.62 8.19v2c0.576 0.106 1.15 0.211 1.75 0.32 2.59 0.781 4.18 1.9 6.32 3.55 0.672 0.513 1.34 1.03 2.04 1.55 3.55 2.93 3.55 2.93 4.9 4.57 0.188 3.69 0.188 3.69 0 7h-2c-0.34 0.835-0.34 0.835-0.688 1.69-3.69 6.51-11.4 12.4-18.3 15.3-3.66-0.152-5.48-0.593-8.38-2.88-1.62-2.12-1.62-2.12-1.62-5.12h-2c-1.69-2.52-1.69-2.52-3.56-5.81-0.62-1.08-1.24-2.16-1.88-3.27-1.56-2.92-1.56-2.92-2.56-5.92-0.66-0.33-1.32-0.66-2-1-1.07-1.56-1.07-1.56-2.12-3.44-0.353-0.617-0.706-1.23-1.07-1.87-0.805-1.69-0.805-1.69-0.805-3.69h-2c-1.8-2.09-3.47-4.18-5.12-6.38-0.468-0.603-0.936-1.21-1.42-1.83-3.46-4.54-3.46-4.54-3.46-6.8h-2c-1.35-1.99-2.68-3.99-4-6-0.701-0.681-1.4-1.36-2.12-2.06-1.88-1.94-1.88-1.94-2.94-4.62-0.464-1.14-0.464-1.14-0.938-2.31-1.48-0.495-1.48-0.495-3-1-3-3.44-3-3.44-3-6h-2c-5-5.48-5-5.48-5-8h-2c-1.55-1.64-1.55-1.64-3.31-3.81-2.66-3.16-5.04-5.2-8.69-7.19v-2c-6.5-1.01-10.2 1.52-15.5 5.13-3.92 2.91-6.9 6.13-10 9.87-2.5 3-2.5 3-4.75 5.17-4.04 4.14-7.5 8.72-11 13.3-0.551 0.696-1.1 1.39-1.67 2.11-0.738 0.95-0.738 0.95-1.49 1.92-1.82 1.74-3.11 2.11-5.57 2.5-1.51-1.6-3.01-3.2-4.5-4.81-0.835-0.893-1.67-1.79-2.53-2.71-1.97-2.48-1.97-2.48-1.97-5.48h-2c-0.801-2.14-0.801-2.14-1-5 1.55-2.22 2.94-3.92 4.81-5.81 0.465-0.502 0.929-1 1.41-1.52 1.21-1.27 2.49-2.48 3.78-3.67h2c0.33-0.99 0.66-1.98 1-3 3.44-3 3.44-3 6-3v-2c1.33-1.2 1.33-1.2 3.18-2.54 0.676-0.494 1.35-0.989 2.05-1.5 0.727-0.524 1.45-1.05 2.2-1.59 5.48-4.01 10.7-8.08 15.7-12.8 1.89-1.62 1.89-1.62 4.57-3.21 2.44-1.2 2.44-1.2 3.32-3.41 1.65-1.03 3.32-2.03 5-3 1.68-1.15 3.34-2.32 5-3.5s3.32-2.35 5-3.5c1.24-0.882 1.24-0.882 2.5-1.78 2.5-1.22 2.5-1.22 5-1.44z" fill="#000002"/>
<path transform="translate(262,403)" d="m0 0c1.95 1.11 1.95 1.11 3.69 2.75 0.674 0.633 1.35 1.27 2.04 1.92 3.15 3.24 6.17 6.6 9.18 9.98 3.28 3.63 6.66 6.58 10.7 9.27 0.45 0.358 0.9 0.717 1.36 1.09v2c1.32 0.33 2.64 0.66 4 1v2c0.577 0.289 1.15 0.577 1.75 0.875 0.743 0.371 1.49 0.743 2.25 1.12 0.639 0.268 1.28 0.536 1.94 0.812 2.82 1.62 4.76 3.88 7.06 6.19 5.09 4.21 5.09 4.21 11 7l5 5c2.17 1.3 2.17 1.3 4 2v2c0.516 0.248 1.03 0.495 1.56 0.75 5.78 2.97 11.4 6.27 16.9 9.86 5.12 3.32 8.43 5.19 14.6 4.39 0.495-1.49 0.495-1.49 1-3 0.755-0.592 1.51-1.18 2.29-1.79 3.06-2.49 5.02-5.22 7.09-8.52 0.386-0.609 0.772-1.22 1.17-1.84 4.12-6.66 7.31-13.7 10.5-20.8 0.956-2.11 1.91-4.21 2.88-6.31 0.389-0.862 0.779-1.72 1.18-2.61 0.624-1.37 1.27-2.73 1.95-4.07 6.22 0.373 8.57 1.97 13 6 0.99 0.33 1.98 0.66 3 1 1.75 1.75 1.75 1.75 3 4-0.381 7.23-5.41 13.2-9.48 18.8-1.54 2.08-1.54 2.08-2.52 4.17h-2c-0.206 0.66-0.413 1.32-0.625 2-1.87 4.07-4.35 7.69-7.38 11h-2c-0.104 0.572-0.209 1.14-0.316 1.73-0.795 2.64-1.96 4.33-3.62 6.52-0.525 0.706-1.05 1.41-1.59 2.14-0.486 0.531-0.972 1.06-1.47 1.61h-2c-0.281 0.577-0.562 1.15-0.852 1.75-2.66 5.21-5.59 10.5-10.1 14.2h-2c-0.248 0.557-0.495 1.11-0.75 1.69-2.14 3.97-3.78 6.77-8.12 8.38-4.29-0.0858-5.84-1.31-9.12-4.06-1.81-1.97-3.54-3.98-5.25-6.04-1.63-1.83-3.27-3.32-5.18-4.84l-2.56-2.12v-2c-0.541-0.248-1.08-0.495-1.64-0.75-2.89-1.53-5.46-3.34-8.11-5.25-0.985-0.701-1.97-1.4-2.98-2.12-0.748-0.619-1.5-1.24-2.27-1.88v-2c-1.98-0.495-1.98-0.495-4-1v-2c-0.538-0.238-1.08-0.477-1.63-0.723-3.02-1.62-5.59-3.63-8.31-5.71-2.93-2.25-5.74-4.38-8.94-6.22-0.7-0.442-1.4-0.884-2.12-1.34v-2c-0.572-0.278-1.14-0.557-1.73-0.844-2.23-1.14-4.37-2.36-6.52-3.66-0.706-0.423-1.41-0.846-2.14-1.28-0.531-0.402-1.06-0.804-1.61-1.22v-2c-1.11-0.433-1.11-0.433-2.25-0.875-2.32-0.948-4.53-1.97-6.75-3.12v-2c-0.963-0.383-0.963-0.383-1.95-0.773-1.01-0.405-2.02-0.81-3.05-1.23-0.984-0.389-0.984-0.389-1.99-0.786-18.2-7.27-18.2-7.27-23-15.2 4.34-9.41 12-24.6 24-23z" fill="#000002"/>
<path transform="translate(372,286)" d="m0 0c1.94 2.41 1.94 2.41 3.56 5.5 0.59 1.09 1.18 2.19 1.79 3.31 0.816 1.58 0.816 1.58 1.65 3.19 5.86 12.6 5.86 12.6 15 22 0.588 1.02 0.588 1.02 1.19 2.06 2.12 3.43 4.66 6.21 7.39 9.17 1.43 1.77 1.43 1.77 1.43 3.77h2c1.41 1.58 1.41 1.58 3.06 3.81 3.59 4.77 7.37 9.34 11.2 13.9 1.72 2.29 1.72 2.29 1.72 4.29h2c5 5.48 5 5.48 5 8 1.49 0.495 1.49 0.495 3 1 0.536 0.722 1.07 1.44 1.62 2.19 3.17 3.75 6.87 6.79 11.4 8.81 7.31-0.563 13.3-5.76 18-11 1.68-1.99 3.34-3.99 5-6 1.69-1.88 1.69-1.88 3-3h2c0.34-0.785 0.34-0.785 0.688-1.59 1.78-3.27 4.03-6.12 6.31-9.04 0.677-0.878 0.677-0.878 1.37-1.77 5.02-6.48 5.02-6.48 8.38-7.16 4.27 0.739 5.51 2.55 8.15 5.84 1.1 1.73 1.1 1.73 1.1 3.73h2c1.55 3.1 1.29 5.58 1 9-1.88 2.94-1.88 2.94-4 5h-2c-0.33 0.99-0.66 1.98-1 3h-2c-0.33 0.99-0.66 1.98-1 3-3.44 3-3.44 3-6 3v2c-2.09 1.8-4.18 3.47-6.38 5.12-0.603 0.468-1.21 0.936-1.83 1.42-4.54 3.46-4.54 3.46-6.8 3.46v2c-1.86 1.69-1.86 1.69-4.31 3.56-1.2 0.93-1.2 0.93-2.43 1.88-2.26 1.56-2.26 1.56-5.26 2.56v2c-1.49 0.495-1.49 0.495-3 1-1.01 0.99-2.01 1.99-3 3-2.31 1.59-4.67 3.09-7.04 4.6-2.08 1.26-2.08 1.26-2.96 3.4-2.56 0.625-2.56 0.625-5 1v2c-3.47 0.99-3.47 0.99-7 2-4.15-3.77-6.57-7.49-9.12-12.4-3.53-6.58-7.57-12.4-12.3-18.1-2.06-2.49-3.51-4.33-4.54-7.43h-2c-0.33-1.32-0.66-2.64-1-4h-2c-1.8-2.09-3.47-4.18-5.12-6.38-0.468-0.603-0.936-1.21-1.42-1.83-3.46-4.54-3.46-4.54-3.46-6.8h-2c-1.33-1.5-1.33-1.5-2.81-3.56-0.797-1.09-0.797-1.09-1.61-2.21-0.975-1.38-1.94-2.76-2.91-4.14-2.03-2.92-3.95-5.37-6.48-7.9-0.722-0.722-1.44-1.44-2.19-2.19v-2h-2c-1.35-1.65-2.68-3.32-4-5-0.99-0.66-1.98-1.32-3-2v-2h-3c-1.69-1.38-1.69-1.38-3-3v-2c-1.32-0.33-2.64-0.66-4-1v-2c-0.874-0.367-0.874-0.367-1.77-0.742-2.6-1.46-4.07-3.11-5.98-5.38-0.614-0.724-1.23-1.45-1.86-2.2-0.459-0.554-0.918-1.11-1.39-1.68 0.66-0.33 1.32-0.66 2-1 0.203-0.901 0.203-0.901 0.41-1.82 1.9-7.01 10.5-11.7 16.4-15.1 4.15-2.13 6.72-2.47 11.2-1.13z" fill="#000002"/>
<path transform="translate(625,226)" d="m0 0c1.05 1.64 1.05 1.64 1.75 3.69 0.242 0.664 0.485 1.33 0.734 2.01 0.63 2.81 0.598 5.43 0.516 8.3-14.2 6.32-28.5 12.2-43.2 17.4-1 0.367-2.01 0.733-3.05 1.11-0.948 0.333-1.9 0.667-2.87 1.01-0.847 0.302-1.69 0.604-2.57 0.916-2.56 0.578-3.91 0.508-6.33-0.474-1.3-2.11-1.3-2.11-2.31-4.75-0.347-0.861-0.694-1.72-1.05-2.61-0.724-3-0.642-4.73 0.363-7.64 3.01-2.01 5.24-2.76 8.69-3.75 7.21-2.16 14.2-4.76 21.2-7.45 3.57-1.36 7.14-2.71 10.7-4.05 0.976-0.369 0.976-0.369 1.97-0.746 1.8-0.677 3.6-1.34 5.4-2 1.59-0.611 1.59-0.611 3.21-1.23 2.85-0.782 4.15-1.07 6.79 0.234z" fill="#000002"/>
</svg>
